<svg xmlns="http://www.w3.org/2000/svg" version="1.1" xmlns:xlink="http://www.w3.org/1999/xlink" xmlns:svgjs="http://svgjs.com/svgjs" width="86" height="101"><svg width="86" height="101" viewBox="0 0 86 101" fill="none" xmlns="http://www.w3.org/2000/svg">
<g clip-path="url(#clip0_11064_1232)">
<path fill-rule="evenodd" clip-rule="evenodd" d="M17 79.5H10.7L4.1 67H4C4.2 69 4.2 70.5 4.2 71.5V79.5H0V61.7H6.3L12.8 74.0999H12.9C12.8 72.2999 12.7 70.9 12.7 69.8V61.7H17V79.5Z" fill="black"></path>
<path fill-rule="evenodd" clip-rule="evenodd" d="M25.2 70.6C25.2 74 26.4 75.8 28.8 75.8C29.9 75.9 30.9 75.4 31.5 74.5C32.2 73.3 32.5 72 32.4 70.6C32.5 69.2 32.2 67.9 31.5 66.7C30.9 65.8 29.9 65.4 28.8 65.4C26.4 65.4 25.2 67.1 25.2 70.6ZM37.5 70.6C37.5 73.6 36.8 75.9 35.3 77.4C33.8 78.9 31.7 79.7 28.8 79.7C26.4 79.9 24.1 79 22.4 77.3C20.9 75.7 20.2 73.5 20.2 70.5C20.2 67.5 20.9 65.3 22.4 63.7C23.9 62.1 26 61.4 28.9 61.4C31.7 61.4 33.9 62.2 35.3 63.7C36.7 65.3 37.5 67.6 37.5 70.6Z" fill="black"></path>
<path fill-rule="evenodd" clip-rule="evenodd" d="M4.8 92.6V96.3H6.5C8 96.3 8.8 95.7 8.8 94.4C8.8 93.9 8.6 93.4 8.2 93C7.7 92.6 7.1 92.5 6.4 92.5H4.8V92.6ZM4.8 89.1H6.2C6.8 89.1 7.3 89 7.8 88.7C8.2 88.4 8.4 87.9 8.4 87.4C8.4 86.4 7.6 85.9 6.1 85.9H4.8V89.1ZM0 82.2H6.2C8.1 82.1 9.9 82.4 11.6 83.3C12.8 84 13.4 85.3 13.4 86.7C13.4 87.6 13.2 88.5 12.6 89.3C12.1 90 11.4 90.5 10.6 90.7V90.8C11.5 91 12.4 91.5 13 92.3C13.5 93.1 13.8 94 13.7 95C13.8 96.5 13.1 97.9 11.9 98.8C10.4 99.8 8.7 100.3 6.9 100.2H0V82.2Z" fill="black"></path>
<path fill-rule="evenodd" clip-rule="evenodd" d="M27.4 100.1H16.8V82.2H27.4V86.1H21.6V88.9H27V92.8H21.7V96.2H27.5V100.1H27.4Z" fill="black"></path>
<path fill-rule="evenodd" clip-rule="evenodd" d="M39.6 92.8L38.8 89.9C38.6 89.3 38.4 88.4 38.1 87.4C37.8 86.4 37.7 85.6 37.6 85.2C37.5 85.6 37.4 86.3 37.2 87.2C37 88.1 36.5 90 35.8 92.8H39.6ZM41.4 100.1L40.5 96.8H34.7L33.8 100.1H28.5L34.3 82.2H40.7L46.6 100.1H41.4Z" fill="black"></path>
<path fill-rule="evenodd" clip-rule="evenodd" d="M53.4 90H54.3C56 90 56.8 89.3 56.8 87.8C56.8 86.6 56 86 54.3 86H53.3L53.4 90ZM53.4 93.6V100.1H48.6V82.2H54.4C59.2 82.2 61.7 84 61.7 87.5C61.7 89.5 60.5 91.4 58.7 92.3L63.9 100.1H58.4L54.6 93.6H53.4Z" fill="black"></path>
<path fill-rule="evenodd" clip-rule="evenodd" d="M77.1 94.6C77.1 95.6 76.8 96.7 76.3 97.5C75.7 98.4 74.9 99.1 73.9 99.5C72.7 100 71.5 100.2 70.2 100.2C69.2 100.2 68.2 100.1 67.2 100C66.3 99.8 65.5 99.5 64.7 99.1V94.8C65.6 95.3 66.6 95.6 67.6 95.9C68.5 96.2 69.4 96.3 70.3 96.3C70.8 96.3 71.4 96.2 71.9 95.9C72.2 95.7 72.4 95.3 72.4 94.9C72.4 94.7 72.3 94.4 72.2 94.3C72 94.1 71.8 93.9 71.6 93.7C71.3 93.5 70.5 93.1 69.2 92.6C68.3 92.2 67.4 91.7 66.6 91.1C66 90.6 65.6 90.1 65.3 89.4C65 88.7 64.9 87.9 64.9 87.1C64.8 85.6 65.5 84.2 66.7 83.3C68.1 82.3 69.9 81.8 71.6 81.9C73.5 81.9 75.5 82.4 77.2 83.2L75.7 87C74.4 86.3 72.9 85.9 71.4 85.9C70.9 85.9 70.4 86 70 86.2C69.7 86.4 69.6 86.7 69.6 87C69.6 87.4 69.8 87.7 70.1 87.9C71 88.5 72 89 73 89.4C74.2 89.9 75.3 90.6 76.2 91.6C76.9 92.5 77.2 93.6 77.1 94.6Z" fill="black"></path>
<path fill-rule="evenodd" clip-rule="evenodd" d="M84.1 36.9L79.5 53.7V20.1L84.1 36.9ZM79.3 54.1L73.7 42L79.3 20.2V54.1ZM60.5 58.2L73.5 42.3L79.2 54.7L60.5 58.2ZM57.4 71.8L60.2 58.6L78.9 55L57.4 71.8ZM68.6 69.7L57.8 71.9L65.4 66L78.8 55.5L68.6 69.7ZM57.1 71.9L49.1 64.6L59.8 58.7L57.1 71.9ZM49.1 79V64.8L57.1 72.1L49.1 79ZM48.9 64.4L38.3 58.6H59.5L48.9 64.4ZM39.1 47L48.6 54.2L37.9 58.2L39.1 47ZM36.7 36.4L37.1 36.3L42.2 35.1L39 46.1L36.7 36.4ZM35.2 29.9L33.5 22.4L46 23.5L45 24.9L36.7 35.9L35.2 29.9ZM48.9 1.7L64.3 22.1L54.1 19.5L49 18.2L44 19.5H43.8L33.7 22L48.9 1.7ZM72.2 15.1L79 19.1L64.7 22.2L52 5.2L49.5 1.8L72.2 15.1ZM50.9 2L67.6 5.4L78.8 18.7L49.7 1.7L50.9 2ZM60.1 2.3L66.2 4.8L51 1.7L60.1 2.3ZM79.2 0.4V11.6L68 5.2L79.2 0.4ZM79.2 18.6L68.3 5.7L79.2 11.9V18.6ZM64.9 22.4L79.2 19.3L73.5 41.6L64.9 22.4ZM61.6 36.2L64.7 22.7L73.2 41.7L61.6 36.2ZM59.1 46.5L61.5 36.5L73.1 42L59.1 46.5ZM59 46.8L73.1 42.3L60.2 58.1L59 46.8ZM53.9 56L49.2 54.2L58.8 46.9L60 58.2L53.9 56ZM48.9 54.4L59.3 58.3H38.6L48.9 54.4ZM46.1 48.8H51.7L58.2 47L50.3 53L48.9 54.1L39.6 47L46.1 48.8ZM42.4 35.2L47.1 39.2H47.2H50.5H50.6L55.6 35.2L58.7 46.6H39.1L42.4 35.2ZM42.3 34.8L39.8 35.4L36.9 36.1L44.4 26.1L45.8 24.2L42.3 34.8ZM46.2 23.6H51.6L55.4 34.8L49 33.7L42.7 34.8L46.2 23.6ZM53.1 24.9L52.1 23.5L64.6 22.4L62.9 29.9L61.5 35.9L53.1 24.9ZM55.8 34.8L52.2 24.2L53.6 26.1L61.1 36.1L58.2 35.4L55.8 34.8ZM60.9 36.3L61.3 36.4L58.9 46.2L58.5 44.8L55.9 35.1L60.9 36.3ZM44.2 19.7L49 18.5L51.4 19.1L53.9 19.7L51.7 23.2H46.2L44.2 19.7ZM31.6 4.8L37.7 2.3L46.9 1.7L31.6 4.8ZM85.7 6.2C85.7 6.1 85.7 6 85.7 6L79.5 0C79.5 0 79.4 0 79.3 0L79.1 0.1L67.7 5L60.2 2L48.9 1.3L37.7 2L30.3 5C30.2 5 30.2 5.1 30.2 5.2C30.2 5.4 30.4 5.3 30.4 5.3L46.9 2L48.6 1.7L33.3 22.1C33 22.3 33.2 22.8 33.2 22.8L36.3 36.3L36.4 36.6L38.8 46.8C38.8 47 37.7 57.7 37.7 58.5L48.7 64.6V79.3C48.7 79.4 48.7 79.4 48.8 79.4C48.8 79.4 48.8 79.4 48.9 79.4H49L57.3 72.2L68.7 69.9C68.7 69.9 68.8 69.9 68.8 69.8L79.6 54.7L84.4 37C84.4 37 84.4 37 84.4 36.9L79.6 19.2L85.7 6.2Z" fill="black"></path>
</g>
<defs>
<clipPath id="SvgjsClipPath1000">
<rect width="85.7" height="100.1" fill="white"></rect>
</clipPath>
</defs>
</svg><style>@media (prefers-color-scheme: light) { :root { filter: none; } }
@media (prefers-color-scheme: dark) { :root { filter: contrast(0.3846153846153846) brightness(4.5); } }
</style></svg>