<svg width="217" height="50" viewBox="0 0 217 50" fill="none" xmlns="http://www.w3.org/2000/svg">
<path d="M35.3 8.8V39.9H28.9L16.5 22H16.3V39.9H8.80005V8.8H15.3L27.5 26.7H27.8V8.8H35.3Z" fill="#FDFCFA"/>
<path d="M68.4001 24.3C68.4001 27.7 67.7001 30.6 66.4001 33C65.1001 35.4 63.3 37.2 61.1 38.4C58.9 39.6 56.3 40.3 53.6 40.3C50.9 40.3 48.3 39.7 46.1 38.4C43.9 37.2 42.1 35.3 40.8 33C39.5 30.6 38.8 27.7 38.8 24.3C38.8 20.9 39.5 18 40.8 15.6C42.1 13.2 43.9 11.4 46.1 10.2C48.3 9 50.9 8.3 53.6 8.3C56.3 8.3 58.9 8.9 61.1 10.2C63.3 11.4 65.1001 13.2 66.4001 15.6C67.7001 18 68.4001 20.9 68.4001 24.3ZM60.8 24.3C60.8 22.3 60.5001 20.6 59.9001 19.2C59.3001 17.8 58.5001 16.7 57.4001 16C56.3001 15.3 55 14.9 53.6 14.9C52.2 14.9 50.8 15.3 49.8 16C48.7 16.7 47.9 17.8 47.3 19.2C46.7 20.6 46.4001 22.3 46.4001 24.3C46.4001 26.3 46.7 28 47.3 29.4C47.9 30.8 48.7 31.9 49.8 32.6C50.9 33.3 52.2 33.7 53.6 33.7C55 33.7 56.4001 33.3 57.4001 32.6C58.5001 31.9 59.3001 30.8 59.9001 29.4C60.5001 28 60.8 26.3 60.8 24.3Z" fill="#FDFCFA"/>
<path d="M72.5 39.9V8.8H85.5C87.8 8.8 89.8 9.1 91.4 9.8C93 10.5 94.2 11.4 95 12.6C95.8 13.8 96.2 15.2 96.2 16.7C96.2 18.2 96 18.9 95.5 19.9C95 20.8 94.3 21.6 93.5 22.2C92.6 22.8 91.6 23.2 90.5 23.5V23.8C91.8 23.8 92.9 24.2 94 24.8C95.1 25.4 95.9 26.3 96.6 27.4C97.2 28.5 97.6 29.8 97.6 31.3C97.6 32.8 97.2 34.5 96.3 35.8C95.4 37.1 94.2 38.1 92.6 38.9C91 39.7 89 40 86.7 40H72.7L72.5 39.9ZM80 21.6H84.2C85 21.6 85.7 21.5 86.4 21.2C87 20.9 87.5 20.5 87.9 20C88.3 19.5 88.4 18.9 88.4 18.1C88.4 17.1 88 16.2 87.3 15.6C86.6 15 85.6 14.7 84.3 14.7H80V21.5V21.6ZM80 33.8H84.6C86.2 33.8 87.4 33.5 88.2 32.9C89 32.3 89.4 31.4 89.4 30.3C89.4 29.2 89.2 28.8 88.8 28.2C88.4 27.6 87.9 27.2 87.2 26.8C86.5 26.5 85.7 26.3 84.7 26.3H79.9V33.7L80 33.8Z" fill="#FDFCFA"/>
<path d="M100.3 39.9V8.8H122V14.9H107.8V21.3H120.9V27.4H107.8V33.8H122V39.9H100.3Z" fill="#FDFCFA"/>
<path d="M147.2 39.9H155.3L144.8 8.8H134.8L124.3 39.9H132.4L134.4 33.4H145.1L147.1 39.9H147.2ZM136.2 27.6L139.7 16.6H139.9L143.4 27.6H136.2Z" fill="#FDFCFA"/>
<path d="M174.6 39.9H182.8L176.4 28.1C178.1 27.3 179.4 26.2 180.4 24.7C181.3 23.2 181.8 21.4 181.8 19.2C181.8 17 181.3 15.2 180.4 13.7C179.5 12.1 178.2 11 176.5 10.1C174.8 9.3 172.8 8.8 170.5 8.8H157.7V39.9H165.2V29.3H169L174.7 39.9H174.6ZM165 14.8H168.7C169.8 14.8 170.8 15 171.5 15.3C172.3 15.6 172.9 16.1 173.2 16.7C173.6 17.3 173.8 18.1 173.8 19.1C173.8 20.1 173.6 20.8 173.2 21.5C172.8 22.1 172.2 22.6 171.5 22.9C170.7 23.2 169.8 23.3 168.7 23.3H165V14.8Z" fill="#FDFCFA"/>
<path d="M201.8 18.1C201.7 17 201.3 16.1 200.5 15.5C199.7 14.9 198.6 14.6 197.1 14.6C195.6 14.6 195.3 14.7 194.7 15C194.1 15.3 193.6 15.6 193.2 16C192.8 16.4 192.7 16.9 192.7 17.5C192.7 18 192.7 18.4 193 18.7C193.2 19.1 193.5 19.4 193.9 19.6C194.3 19.9 194.8 20.1 195.3 20.3C195.9 20.5 196.5 20.7 197.2 20.8L199.9 21.4C201.4 21.7 202.8 22.2 204 22.7C205.2 23.3 206.2 23.9 207 24.7C207.8 25.5 208.4 26.4 208.8 27.4C209.2 28.4 209.4 29.5 209.4 30.8C209.4 32.8 208.9 34.4 207.9 35.9C206.9 37.3 205.5 38.4 203.7 39.1C201.9 39.8 199.6 40.2 197.1 40.2C194.6 40.2 192.2 39.8 190.3 39C188.4 38.2 186.9 37 185.8 35.4C184.7 33.8 184.2 31.8 184.1 29.4H191.3C191.3 30.4 191.6 31.2 192.1 31.9C192.6 32.6 193.2 33.1 194.1 33.4C194.9 33.7 195.9 33.9 197 33.9C198.1 33.9 198.9 33.8 199.6 33.5C200.3 33.2 200.9 32.8 201.2 32.4C201.6 31.9 201.8 31.4 201.8 30.7C201.8 30.1 201.6 29.6 201.3 29.2C200.9 28.8 200.4 28.4 199.7 28.1C199 27.8 198 27.5 196.9 27.2L193.7 26.4C191 25.8 188.9 24.8 187.3 23.4C185.8 22 185 20.1 185 17.8C185 15.9 185.5 14.2 186.5 12.7C187.5 11.3 189 10.1 190.8 9.3C192.6 8.5 194.7 8.1 197.1 8.1C199.5 8.1 201.6 8.5 203.4 9.3C205.2 10.1 206.6 11.3 207.5 12.7C208.5 14.2 209 15.9 209 17.8H201.8V18.1Z" fill="#FDFCFA"/>
</svg>
