<?xml version="1.0" encoding="UTF-8"?>
<svg id="Laag_1" data-name="Laag 1" xmlns="http://www.w3.org/2000/svg" version="1.1" viewBox="0 0 64 64">
  <defs>
    <style>
      .cls-1 {
        fill: none;
        stroke: #000;
        stroke-linecap: round;
        stroke-linejoin: round;
        stroke-width: .6px;
      }

      .cls-2 {
        fill: #000;
        stroke-width: 0px;
      }
    </style>
  </defs>
  <polygon class="cls-1" points="26.3 62.8 26.3 51.2 17.4 46.5 18.3 37.2 14 17.9 26.2 1.6 38.5 18 49.9 43.4 26.3 62.8"/>
  <polygon class="cls-1" points="11.7 4.8 26.2 1.6 17.9 1.6 11.7 4.8"/>
  <polyline class="cls-1" points="45.4 33.3 49.9 15.7 53.7 29.5 49.9 43.4 49.9 9.7 34.9 1.6 26.2 1.6 40.9 4.8 50 .6 55 5.3 49.9 15.7 40.9 4.8"/>
  <line class="cls-1" x1="26.2" y1="1.6" x2="49.9" y2="15.7"/>
  <polyline class="cls-1" points="45.4 33.3 35 46.5 17.4 46.5"/>
  <polyline class="cls-1" points="32.8 57.4 35 46.5 33.9 37.1 28.3 19.1 24.1 19.1 18.3 37.2"/>
  <line class="cls-1" x1="18.3" y1="37.2" x2="33.9" y2="37.2"/>
  <line class="cls-1" x1="26.3" y1="51.2" x2="35" y2="46.5"/>
  <polyline class="cls-1" points="26.3 51.2 32.8 57.4 41.7 55.3 49.9 43.4 35 46.5"/>
  <path class="cls-1" d="M49.9,43.4"/>
  <line class="cls-1" x1="49.9" y1="15.7" x2="49.9" y2=".6"/>
  <line class="cls-1" x1="28.3" y1="19.1" x2="49.9" y2="15.7"/>
  <line class="cls-1" x1="24.1" y1="19.1" x2="14" y2="17.9"/>
  <polyline class="cls-1" points="14.1 18 26.2 14.9 38.3 17.6 33.9 37.2"/>
  <line class="cls-1" x1="16.5" y1="29.2" x2="24.1" y2="19.1"/>
  <line class="cls-1" x1="28.3" y1="19.1" x2="35.9" y2="28.9"/>
  <line class="cls-1" x1="45.4" y1="33.3" x2="35.9" y2="28.9"/>
  <polyline class="cls-1" points="16.5 29.2 26.1 27 35.7 28.9"/>
  <line class="cls-1" x1="45.4" y1="33.3" x2="33.9" y2="37.2"/>
  <line class="cls-1" x1="18.3" y1="37.2" x2="35" y2="46.5"/>
  <line class="cls-1" x1="17.4" y1="46.5" x2="33.9" y2="37.2"/>
  <line class="cls-1" x1="22.4" y1="15.8" x2="24.1" y2="19.1"/>
  <line class="cls-1" x1="28.3" y1="19.1" x2="30.5" y2="15.8"/>
  <polyline class="cls-1" points="21.2 28.2 24.8 31.3 27.4 31.3 31 28.2"/>
  <polygon class="cls-2" points="21.2 28.2 24.8 31.3 27.5 31.3 31 28.2 26.1 27 21.2 28.2"/>
  <polygon class="cls-2" points="14.3 17.8 24.1 19.1 22.3 15.9 14.3 17.8"/>
  <polygon class="cls-2" points="30.5 15.8 38.3 17.6 28.3 19.1 30.5 15.8"/>
  <polygon class="cls-2" points="49.9 .6 49.9 15.6 55 5.4 49.9 .6"/>
  <polygon class="cls-2" points="18.5 37.4 24 38.8 28.2 38.8 33.5 37.4 18.5 37.4"/>
</svg>