<?xml version="1.0" encoding="UTF-8"?>
<svg id="Laag_1" data-name="Laag 1" xmlns="http://www.w3.org/2000/svg" version="1.1" viewBox="0 0 1920 1920">
  <defs>
    <style>
      .cls-1 {
        fill: #000;
        stroke-width: 0px;
      }

      .cls-2 {
        fill: none;
        stroke: #000;
        stroke-linecap: round;
        stroke-linejoin: round;
        stroke-width: 7px;
      }
    </style>
  </defs>
  <g>
    <path class="cls-1" d="M512.8,1103.5v294.5h-60.4l-117.2-170h-1.9v170h-71.2v-294.5h61.3l115.9,169.7h2.4v-169.7h71Z"/>
    <path class="cls-1" d="M825.5,1250.7c0,32.4-6.2,59.9-18.7,82.4-12.5,22.5-29.3,39.6-50.5,51.3-21.2,11.7-45,17.5-71.4,17.5s-50.3-5.9-71.5-17.7c-21.2-11.8-38-28.9-50.4-51.4-12.4-22.5-18.6-49.9-18.6-82.2s6.2-59.9,18.6-82.4c12.4-22.5,29.2-39.6,50.4-51.3,21.2-11.7,45-17.5,71.5-17.5s50.2,5.8,71.4,17.5c21.2,11.7,38.1,28.8,50.5,51.3,12.5,22.5,18.7,50,18.7,82.4ZM752.7,1250.7c0-19.2-2.7-35.4-8.1-48.6-5.4-13.2-13.2-23.2-23.3-30.1-10.1-6.8-22.3-10.2-36.5-10.2s-26.2,3.4-36.4,10.2c-10.2,6.8-18,16.8-23.4,30.1-5.4,13.2-8.1,29.4-8.1,48.6s2.7,35.4,8.1,48.6c5.4,13.2,13.2,23.2,23.4,30.1,10.2,6.8,22.3,10.2,36.4,10.2s26.3-3.4,36.5-10.2c10.1-6.8,17.9-16.8,23.3-30.1,5.4-13.2,8.1-29.4,8.1-48.6Z"/>
    <path class="cls-1" d="M262.2,1733.1v-294.5h122.8c22,0,40.5,3.1,55.4,9.3,14.9,6.2,26.1,15,33.7,26.2,7.5,11.2,11.3,24.2,11.3,39s-2.4,21.2-7,30c-4.7,8.8-11.2,16-19.4,21.8-8.2,5.8-17.8,9.8-28.6,12.1v2.9c11.9.6,22.9,3.8,33,9.6,10.1,5.8,18.2,14,24.4,24.4,6.1,10.4,9.2,22.7,9.2,36.9s-4,29.9-12.1,42.3c-8.1,12.4-19.7,22.2-34.9,29.3-15.2,7.1-33.7,10.7-55.5,10.7h-132.2ZM333.4,1559.7h39.4c7.8,0,14.7-1.3,20.7-3.9,6-2.6,10.8-6.3,14.2-11.2,3.4-4.9,5.1-10.8,5.1-17.7,0-9.9-3.5-17.6-10.5-23.3-7-5.7-16.4-8.5-28.3-8.5h-40.6v64.6ZM333.4,1675.7h44c15.4,0,26.8-2.9,34.2-8.8,7.3-5.8,11-14,11-24.4s-1.8-14.1-5.3-19.6c-3.5-5.5-8.6-9.8-15.1-12.8-6.5-3-14.3-4.5-23.4-4.5h-45.3v70.2Z"/>
    <path class="cls-1" d="M525.6,1733.1v-294.5h205.4v57.8h-134.2v60.4h123.7v58h-123.7v60.5h134.2v57.8h-205.4Z"/>
    <path class="cls-1" d="M969.3,1733.1h76.5l-99.4-294.5h-94.8l-99.4,294.5h76.5l19.4-61.8h101.7l19.4,61.8ZM865.2,1617.2l32.7-104.4h2.3l32.8,104.4h-67.8Z"/>
    <path class="cls-1" d="M1228.6,1733.1h77.7l-61.1-112.1c16.2-7.4,28.8-18.2,37.6-32.3,8.9-14.2,13.4-31.6,13.4-52s-4.4-37.6-13.1-52.3c-8.7-14.7-21.1-26-37.2-33.9-16.1-7.9-35.1-11.9-57.2-11.9h-121.7v294.5h71.2v-100.8h36.5l53.8,100.8ZM1138.3,1496h35.1c10.6,0,19.6,1.5,26.9,4.5,7.3,3,12.8,7.5,16.5,13.5,3.7,6,5.6,13.5,5.6,22.6s-1.9,16.6-5.6,22.4c-3.7,5.8-9.2,10.1-16.5,12.9-7.2,2.8-16.2,4.2-27,4.2h-35.1v-80.2Z"/>
    <path class="cls-1" d="M1486.8,1526.9c-1-10.5-5.2-18.8-12.7-24.7-7.5-5.9-18.2-8.8-32.1-8.8s-16.9,1.2-23,3.6c-6.1,2.4-10.7,5.7-13.8,9.8-3.1,4.2-4.7,8.9-4.7,14.3-.2,4.4.7,8.3,2.7,11.6,2,3.4,4.8,6.3,8.6,8.8,3.8,2.5,8.4,4.8,13.7,6.7,5.4,1.9,11.4,3.6,18.1,5l25.3,5.8c14.6,3.2,27.4,7.4,38.6,12.7,11.2,5.3,20.6,11.6,28.2,18.8,7.6,7.3,13.4,15.7,17.3,25.2,3.9,9.5,5.9,20.1,6,31.9,0,18.6-4.8,34.6-14.1,47.9-9.3,13.3-22.6,23.5-40,30.6-17.4,7.1-38.4,10.6-62.9,10.6s-46.1-3.7-64.4-11.1c-18.3-7.4-32.5-18.6-42.7-33.7-10.2-15-15.4-34.1-15.7-57.1h68.2c.6,9.5,3.1,17.4,7.6,23.7,4.5,6.3,10.7,11.1,18.6,14.4,7.9,3.3,17.1,4.9,27.5,4.9s17.8-1.3,24.5-3.9c6.8-2.6,12-6.2,15.6-10.8,3.6-4.6,5.5-9.9,5.6-15.8,0-5.6-1.8-10.3-5.2-14.3-3.4-4-8.5-7.4-15.5-10.4-7-2.9-15.8-5.6-26.5-8.1l-30.8-7.2c-25.5-5.8-45.6-15.3-60.3-28.4-14.7-13.1-22-30.8-21.9-53.1,0-18.2,4.8-34.2,14.7-47.9,9.9-13.7,23.5-24.4,41-32.1,17.4-7.7,37.3-11.5,59.7-11.5s42.6,3.9,59.5,11.6c16.8,7.7,29.9,18.5,39.2,32.4,9.3,13.9,14,30,14.2,48.3h-68.2Z"/>
  </g>
  <polygon class="cls-2" points="1070.9 1399.7 1070.9 1157.1 885.7 1059.1 903.7 865.4 813.6 460.5 1069.3 119.5 1328.3 462.1 1565.9 994.8 1070.9 1399.7"/>
  <polygon class="cls-2" points="766 185.1 1069.3 119.5 895.5 119.5 766 185.1"/>
  <polyline class="cls-2" points="1471.6 783.5 1565.9 414.6 1646.3 703.1 1565.9 994.8 1565.9 288.4 1252.9 119.5 1069.3 119.5 1377.3 185.1 1567.6 97.7 1672.5 196.6 1565.9 414.6 1377.3 185.1"/>
  <line class="cls-2" x1="1069.3" y1="119.5" x2="1565.9" y2="414.6"/>
  <polyline class="cls-2" points="1471.6 783.5 1254.5 1058.8 885.7 1058.8"/>
  <polyline class="cls-2" points="1208.6 1287.1 1254.5 1058.8 1229.9 862.1 1113.5 485.1 1025 485.1 903.7 865.4"/>
  <line class="cls-2" x1="903.7" y1="865.4" x2="1229.9" y2="865.4"/>
  <line class="cls-2" x1="1070.9" y1="1157.1" x2="1254.5" y2="1058.8"/>
  <polyline class="cls-2" points="1070.9 1157.1 1208.6 1287.1 1393.8 1244 1566.2 995.1 1254.5 1058.8"/>
  <path class="cls-2" d="M1565.9,994.8"/>
  <line class="cls-2" x1="1565.9" y1="414.6" x2="1565.9" y2="98.2"/>
  <line class="cls-2" x1="1113.5" y1="485.1" x2="1565.9" y2="414.6"/>
  <line class="cls-2" x1="1025" y1="485.1" x2="813.6" y2="460.5"/>
  <polyline class="cls-2" points="815.2 462.1 1069.3 396.6 1323.1 453.8 1229.9 865.4"/>
  <line class="cls-2" x1="866.1" y1="696.5" x2="1025" y2="485.1"/>
  <line class="cls-2" x1="1113.5" y1="485.1" x2="1272.5" y2="690"/>
  <line class="cls-2" x1="1471.6" y1="783.5" x2="1272.5" y2="690"/>
  <polyline class="cls-2" points="866.1 696.5 1067.6 650.6 1269 690"/>
  <line class="cls-2" x1="1471.6" y1="783.5" x2="1229.9" y2="865.4"/>
  <line class="cls-2" x1="903.7" y1="865.4" x2="1254.5" y2="1058.8"/>
  <line class="cls-2" x1="885.7" y1="1058.8" x2="1229.9" y2="865.4"/>
  <line class="cls-2" x1="989.5" y1="417.1" x2="1025" y2="485.1"/>
  <line class="cls-2" x1="1113.5" y1="485.1" x2="1160.2" y2="417.1"/>
  <polyline class="cls-2" points="964.4 675.2 1039.8 740.8 1095.5 740.8 1170.1 675.2"/>
  <polygon class="cls-1" points="964.4 675.2 1039.8 740.8 1097.1 740.8 1170.1 675.2 1067.6 650.6 964.4 675.2"/>
  <polygon class="cls-1" points="820.1 458.8 1025 485.1 989 417.9 820.1 458.8"/>
  <polygon class="cls-1" points="1160.2 417.1 1323.1 453.8 1113.5 485.1 1160.2 417.1"/>
  <polygon class="cls-1" points="1565.9 97.1 1566.7 413 1672.5 197.5 1565.9 97.1"/>
  <polygon class="cls-1" points="908.6 868.6 1023.4 898.1 1112.2 898.1 1221.7 868.6 908.6 868.6"/>
</svg>