<?xml version="1.0" encoding="UTF-8"?>
<svg id="Laag_1" data-name="Laag 1" xmlns="http://www.w3.org/2000/svg" version="1.1" viewBox="0 0 216.5 49.2">
  <defs>
    <style>
      .cls-1 {
        fill: #fdfcfa;
        stroke-width: 0px;
      }
    </style>
  </defs>
  <path class="cls-1" d="M35.3,8.8v31.1h-6.4l-12.4-17.9h-.2v17.9h-7.5V8.8h6.5l12.2,17.9h.3V8.8h7.5Z"/>
  <path class="cls-1" d="M68.4,24.3c0,3.4-.7,6.3-2,8.7-1.3,2.4-3.1,4.2-5.3,5.4-2.2,1.2-4.8,1.9-7.5,1.9s-5.3-.6-7.5-1.9c-2.2-1.2-4-3.1-5.3-5.4-1.3-2.4-2-5.3-2-8.7s.7-6.3,2-8.7c1.3-2.4,3.1-4.2,5.3-5.4,2.2-1.2,4.8-1.9,7.5-1.9s5.3.6,7.5,1.9c2.2,1.2,4,3,5.3,5.4,1.3,2.4,2,5.3,2,8.7ZM60.8,24.3c0-2-.3-3.7-.9-5.1-.6-1.4-1.4-2.5-2.5-3.2-1.1-.7-2.4-1.1-3.8-1.1s-2.8.4-3.8,1.1c-1.1.7-1.9,1.8-2.5,3.2-.6,1.4-.9,3.1-.9,5.1s.3,3.7.9,5.1c.6,1.4,1.4,2.5,2.5,3.2,1.1.7,2.4,1.1,3.8,1.1s2.8-.4,3.8-1.1c1.1-.7,1.9-1.8,2.5-3.2.6-1.4.9-3.1.9-5.1Z"/>
  <path class="cls-1" d="M72.5,39.9V8.8h13c2.3,0,4.3.3,5.9,1,1.6.7,2.8,1.6,3.6,2.8.8,1.2,1.2,2.6,1.2,4.1s-.2,2.2-.7,3.2c-.5.9-1.2,1.7-2,2.3-.9.6-1.9,1-3,1.3v.3c1.3,0,2.4.4,3.5,1,1.1.6,1.9,1.5,2.6,2.6.6,1.1,1,2.4,1,3.9s-.4,3.2-1.3,4.5c-.9,1.3-2.1,2.3-3.7,3.1-1.6.8-3.6,1.1-5.9,1.1h-14ZM80,21.6h4.2c.8,0,1.5-.1,2.2-.4.6-.3,1.1-.7,1.5-1.2.4-.5.5-1.1.5-1.9,0-1-.4-1.9-1.1-2.5-.7-.6-1.7-.9-3-.9h-4.3v6.8ZM80,33.8h4.6c1.6,0,2.8-.3,3.6-.9.8-.6,1.2-1.5,1.2-2.6s-.2-1.5-.6-2.1c-.4-.6-.9-1-1.6-1.4-.7-.3-1.5-.5-2.5-.5h-4.8v7.4Z"/>
  <path class="cls-1" d="M100.3,39.9V8.8h21.7v6.1h-14.2v6.4h13.1v6.1h-13.1v6.4h14.2v6.1h-21.7Z"/>
  <path class="cls-1" d="M147.2,39.9h8.1l-10.5-31.1h-10l-10.5,31.1h8.1l2-6.5h10.7l2,6.5ZM136.2,27.6l3.5-11h.2l3.5,11h-7.2Z"/>
  <path class="cls-1" d="M174.6,39.9h8.2l-6.4-11.8c1.7-.8,3-1.9,4-3.4.9-1.5,1.4-3.3,1.4-5.5s-.5-4-1.4-5.5c-.9-1.6-2.2-2.7-3.9-3.6-1.7-.8-3.7-1.3-6-1.3h-12.8v31.1h7.5v-10.6h3.8l5.7,10.6ZM165,14.8h3.7c1.1,0,2.1.2,2.8.5.8.3,1.4.8,1.7,1.4.4.6.6,1.4.6,2.4s-.2,1.7-.6,2.4c-.4.6-1,1.1-1.7,1.4-.8.3-1.7.4-2.8.4h-3.7v-8.5Z"/>
  <path class="cls-1" d="M201.8,18.1c-.1-1.1-.5-2-1.3-2.6-.8-.6-1.9-.9-3.4-.9s-1.8.1-2.4.4c-.6.3-1.1.6-1.5,1s-.5.9-.5,1.5c0,.5,0,.9.3,1.2.2.4.5.7.9.9.4.3.9.5,1.4.7.6.2,1.2.4,1.9.5l2.7.6c1.5.3,2.9.8,4.1,1.3,1.2.6,2.2,1.2,3,2,.8.8,1.4,1.7,1.8,2.7.4,1,.6,2.1.6,3.4,0,2-.5,3.6-1.5,5.1-1,1.4-2.4,2.5-4.2,3.2s-4.1,1.1-6.6,1.1-4.9-.4-6.8-1.2c-1.9-.8-3.4-2-4.5-3.6-1.1-1.6-1.6-3.6-1.7-6h7.2c0,1,.3,1.8.8,2.5.5.7,1.1,1.2,2,1.5.8.3,1.8.5,2.9.5s1.9-.1,2.6-.4c.7-.3,1.3-.7,1.6-1.1.4-.5.6-1,.6-1.7,0-.6-.2-1.1-.5-1.5-.4-.4-.9-.8-1.6-1.1-.7-.3-1.7-.6-2.8-.9l-3.2-.8c-2.7-.6-4.8-1.6-6.4-3-1.5-1.4-2.3-3.3-2.3-5.6,0-1.9.5-3.6,1.5-5.1,1-1.4,2.5-2.6,4.3-3.4,1.8-.8,3.9-1.2,6.3-1.2s4.5.4,6.3,1.2c1.8.8,3.2,2,4.1,3.4,1,1.5,1.5,3.2,1.5,5.1h-7.2Z"/>
</svg>