<?xml version="1.0" encoding="UTF-8"?>
<svg id="Laag_1" data-name="Laag 1" xmlns="http://www.w3.org/2000/svg" version="1.1" viewBox="0 0 701.7 184.6">
  <defs>
    <style>
      .cls-1 {
        fill: #000;
        stroke-width: 0px;
      }

      .cls-2 {
        fill: none;
        stroke: #000;
        stroke-linecap: round;
        stroke-linejoin: round;
        stroke-width: .8px;
      }
    </style>
  </defs>
  <g>
    <path class="cls-1" d="M90,63.9v90.3h-18.5l-35.9-52.1h-.6v52.1H13.1V63.9h18.8l35.5,52h.7v-52h21.8Z"/>
    <path class="cls-1" d="M186.4,109.1c0,9.9-1.9,18.4-5.7,25.3-3.8,6.9-9,12.2-15.5,15.7-6.5,3.6-13.8,5.4-21.9,5.4s-15.4-1.8-21.9-5.4c-6.5-3.6-11.7-8.9-15.5-15.8-3.8-6.9-5.7-15.3-5.7-25.2s1.9-18.4,5.7-25.3c3.8-6.9,9-12.2,15.5-15.7,6.5-3.6,13.8-5.4,21.9-5.4s15.4,1.8,21.9,5.4c6.5,3.6,11.7,8.8,15.5,15.7,3.8,6.9,5.7,15.3,5.7,25.3ZM164.1,109.1c0-5.9-.8-10.9-2.5-14.9-1.7-4.1-4-7.1-7.1-9.2-3.1-2.1-6.8-3.1-11.2-3.1s-8,1-11.2,3.1c-3.1,2.1-5.5,5.2-7.2,9.2-1.7,4.1-2.5,9-2.5,14.9s.8,10.8,2.5,14.9c1.7,4.1,4.1,7.1,7.2,9.2,3.1,2.1,6.8,3.1,11.2,3.1s8.1-1,11.2-3.1c3.1-2.1,5.5-5.2,7.1-9.2,1.7-4.1,2.5-9,2.5-14.9Z"/>
    <path class="cls-1" d="M198.2,154.3V64h37.7c6.8,0,12.4,1,17,2.9,4.6,1.9,8,4.6,10.3,8,2.3,3.4,3.5,7.4,3.5,12s-.7,6.5-2.2,9.2c-1.4,2.7-3.4,4.9-6,6.7-2.5,1.8-5.5,3-8.8,3.7v.9c3.6.2,7,1.2,10.1,3,3.1,1.8,5.6,4.3,7.5,7.5,1.9,3.2,2.8,7,2.8,11.3s-1.2,9.2-3.7,13c-2.5,3.8-6,6.8-10.7,9-4.7,2.2-10.4,3.3-17,3.3h-40.5ZM220.1,101.1h12.1c2.4,0,4.5-.4,6.4-1.2,1.9-.8,3.3-1.9,4.3-3.4,1-1.5,1.6-3.3,1.6-5.4,0-3-1.1-5.4-3.2-7.1-2.1-1.7-5-2.6-8.7-2.6h-12.4v19.8ZM220.1,136.7h13.5c4.7,0,8.2-.9,10.5-2.7,2.2-1.8,3.4-4.3,3.4-7.5s-.5-4.3-1.6-6c-1.1-1.7-2.6-3-4.6-3.9-2-.9-4.4-1.4-7.2-1.4h-13.9v21.5Z"/>
    <path class="cls-1" d="M279,154.3V64h63v17.7h-41.2v18.5h37.9v17.8h-37.9v18.6h41.2v17.7h-63Z"/>
    <path class="cls-1" d="M415.1,154.3h23.5l-30.5-90.3h-29.1l-30.5,90.3h23.5l5.9-19h31.2l6,19ZM383.2,118.8l10-32h.7l10.1,32h-20.8Z"/>
    <path class="cls-1" d="M494.6,154.3h23.8l-18.7-34.4c5-2.3,8.8-5.6,11.5-9.9,2.7-4.4,4.1-9.7,4.1-15.9s-1.3-11.5-4-16c-2.7-4.5-6.5-8-11.4-10.4-4.9-2.4-10.8-3.6-17.5-3.6h-37.3v90.3h21.8v-30.9h11.2l16.5,30.9ZM466.9,81.6h10.8c3.3,0,6,.5,8.2,1.4,2.2.9,3.9,2.3,5.1,4.1,1.1,1.8,1.7,4.2,1.7,6.9s-.6,5.1-1.7,6.9c-1.1,1.8-2.8,3.1-5.1,4-2.2.9-5,1.3-8.3,1.3h-10.8v-24.6Z"/>
    <path class="cls-1" d="M573.8,91.1c-.3-3.2-1.6-5.8-3.9-7.6-2.3-1.8-5.6-2.7-9.9-2.7s-5.2.4-7.1,1.1c-1.9.7-3.3,1.7-4.2,3s-1.4,2.7-1.5,4.4c0,1.4.2,2.5.8,3.6.6,1,1.5,1.9,2.6,2.7,1.2.8,2.6,1.5,4.2,2.1,1.6.6,3.5,1.1,5.6,1.5l7.8,1.8c4.5,1,8.4,2.3,11.8,3.9,3.4,1.6,6.3,3.5,8.6,5.8,2.3,2.2,4.1,4.8,5.3,7.7,1.2,2.9,1.8,6.2,1.9,9.8,0,5.7-1.5,10.6-4.3,14.7-2.9,4.1-6.9,7.2-12.3,9.4-5.3,2.2-11.8,3.3-19.3,3.3s-14.1-1.1-19.8-3.4c-5.6-2.3-10-5.7-13.1-10.3-3.1-4.6-4.7-10.5-4.8-17.5h20.9c.2,2.9,1,5.3,2.3,7.3,1.4,1.9,3.3,3.4,5.7,4.4,2.4,1,5.2,1.5,8.4,1.5s5.4-.4,7.5-1.2c2.1-.8,3.7-1.9,4.8-3.3,1.1-1.4,1.7-3,1.7-4.9,0-1.7-.6-3.2-1.6-4.4-1-1.2-2.6-2.3-4.7-3.2-2.1-.9-4.8-1.7-8.1-2.5l-9.4-2.2c-7.8-1.8-14-4.7-18.5-8.7-4.5-4-6.7-9.4-6.7-16.3,0-5.6,1.5-10.5,4.5-14.7,3-4.2,7.2-7.5,12.6-9.8,5.4-2.4,11.5-3.5,18.3-3.5s13.1,1.2,18.2,3.6c5.2,2.4,9.2,5.7,12,9.9,2.9,4.3,4.3,9.2,4.4,14.8h-20.9Z"/>
  </g>
  <g>
    <polygon class="cls-2" points="629.2 153.5 629.2 128.7 610.3 118.7 612.2 99 603 57.6 629.1 22.9 655.5 57.8 679.7 112.2 629.2 153.5"/>
    <polygon class="cls-2" points="598.1 29.5 629.1 22.9 611.3 22.9 598.1 29.5"/>
    <polyline class="cls-2" points="670.1 90.6 679.7 53 687.9 82.4 679.7 112.2 679.7 40.1 647.8 22.9 629.1 22.9 660.5 29.5 679.9 20.6 690.6 30.7 679.7 53 660.5 29.5"/>
    <line class="cls-2" x1="629.1" y1="22.9" x2="679.7" y2="53"/>
    <polyline class="cls-2" points="670.1 90.6 648 118.7 610.3 118.7"/>
    <polyline class="cls-2" points="643.3 142 648 118.7 645.5 98.6 633.6 60.2 624.5 60.2 612.2 99"/>
    <line class="cls-2" x1="612.2" y1="99" x2="645.5" y2="99"/>
    <line class="cls-2" x1="629.2" y1="128.7" x2="648" y2="118.7"/>
    <polyline class="cls-2" points="629.2 128.7 643.3 142 662.2 137.6 679.8 112.2 648 118.7"/>
    <path class="cls-2" d="M679.7,112.2"/>
    <line class="cls-2" x1="679.7" y1="53" x2="679.7" y2="20.7"/>
    <line class="cls-2" x1="633.6" y1="60.2" x2="679.7" y2="53"/>
    <line class="cls-2" x1="624.5" y1="60.2" x2="603" y2="57.6"/>
    <polyline class="cls-2" points="603.1 57.8 629.1 51.1 655 57 645.5 99"/>
    <line class="cls-2" x1="608.3" y1="81.7" x2="624.5" y2="60.2"/>
    <line class="cls-2" x1="633.6" y1="60.2" x2="649.8" y2="81.1"/>
    <line class="cls-2" x1="670.1" y1="90.6" x2="649.8" y2="81.1"/>
    <polyline class="cls-2" points="608.3 81.7 628.9 77.1 649.4 81.1"/>
    <line class="cls-2" x1="670.1" y1="90.6" x2="645.5" y2="99"/>
    <line class="cls-2" x1="612.2" y1="99" x2="648" y2="118.7"/>
    <line class="cls-2" x1="610.3" y1="118.7" x2="645.5" y2="99"/>
    <line class="cls-2" x1="620.9" y1="53.2" x2="624.5" y2="60.2"/>
    <line class="cls-2" x1="633.6" y1="60.2" x2="638.3" y2="53.2"/>
    <polyline class="cls-2" points="618.4 79.6 626 86.3 631.7 86.3 639.3 79.6"/>
    <polygon class="cls-1" points="618.4 79.6 626 86.3 631.9 86.3 639.3 79.6 628.9 77.1 618.4 79.6"/>
    <polygon class="cls-1" points="603.6 57.5 624.5 60.2 620.9 53.3 603.6 57.5"/>
    <polygon class="cls-1" points="638.3 53.2 655 57 633.6 60.2 638.3 53.2"/>
    <polygon class="cls-1" points="679.7 20.6 679.8 52.8 690.6 30.8 679.7 20.6"/>
    <polygon class="cls-1" points="612.7 99.3 624.4 102.3 633.4 102.3 644.6 99.3 612.7 99.3"/>
  </g>
</svg>